<svg xmlns="http://www.w3.org/2000/svg" width="864" height="58" viewBox="0 0 864 58" xmlns:xlink="http://www.w3.org/1999/xlink">
  <defs>
    <polygon id="b" points="25 0 50 14.407 50 43.22 25 57.627 0 43.22 0 14.407"/>
    <filter id="a" width="130%" height="126%" x="-15%" y="-13%" filterUnits="objectBoundingBox">
      <feOffset in="SourceAlpha" result="shadowOffsetOuter1"/>
      <feGaussianBlur stdDeviation="2.5" in="shadowOffsetOuter1" result="shadowBlurOuter1"/>
      <feColorMatrix values="0 0 0 0 0 0 0 0 0 0 0 0 0 0 0 0 0 0 0.07 0" in="shadowBlurOuter1"/>
    </filter>
    <polygon id="c" points="25.424 4.237 46.61 16.314 46.61 40.466 25.424 52.542 4.237 40.466 4.237 16.314"/>
  </defs>
  <g fill="none" fill-rule="evenodd">
    <g transform="translate(0 21)" opacity=".2">
      <g transform="matrix(0 1 -1 0 433 .5)">
        <polygon fill="#435363" points="7.68 17.862 9.366 17.9 1.796 9.265 .11 9.226"/>
        <polygon fill="#FFFFFF" points="1.25 15.249 4.2 16.246 9.508 10.614 6.634 9.62"/>
        <polygon fill="#8B99A6" points="0 17.688 1.686 17.725 9.64 9.442 7.954 9.405"/>
        <polygon fill="#8B99A6" points="7.954 9.405 9.639 9.443 2.069 .807 .383 .769"/>
        <polygon fill="#435363" points=".109 9.226 1.796 9.265 9.75 .982 8.064 .943"/>
        <polygon fill="#435363" points=".109 26.258 7.873 34.719 9.559 34.719 1.795 26.258"/>
        <polygon fill="#FFFFFF" points="1.385 32.253 4.356 33.182 9.537 27.432 6.641 26.504"/>
        <polygon fill="#8B99A6" points="7.955 26.258 .191 34.719 1.877 34.719 9.641 26.258"/>
        <polygon fill="#8B99A6" points=".19 17.796 7.955 26.258 9.641 26.258 1.877 17.796"/>
        <polygon fill="#435363" points="7.873 17.796 .108 26.258 1.795 26.258 9.559 17.796"/>
        <polygon fill="#435363" points=".109 43.181 7.873 51.643 9.559 51.643 1.795 43.181"/>
        <polygon fill="#FFFFFF" points="1.385 49.176 4.356 50.106 9.537 44.354 6.641 43.427"/>
        <polygon fill="#8B99A6" points="7.955 43.181 .191 51.643 1.877 51.643 9.641 43.181"/>
        <polygon fill="#8B99A6" points=".19 34.719 7.955 43.181 9.641 43.181 1.877 34.719"/>
        <polygon fill="#435363" points="7.873 34.719 .108 43.181 1.795 43.181 9.559 34.719"/>
        <polygon fill="#435363" points=".109 60.104 7.873 68.566 9.559 68.566 1.795 60.104"/>
        <polygon fill="#FFFFFF" points="1.385 66.099 4.356 67.029 9.537 61.278 6.641 60.35"/>
        <polygon fill="#8B99A6" points="7.955 60.104 .191 68.566 1.877 68.566 9.641 60.104"/>
        <polygon fill="#8B99A6" points=".19 51.643 7.955 60.104 9.641 60.104 1.877 51.643"/>
        <polygon fill="#435363" points="7.873 51.643 .108 60.104 1.795 60.104 9.559 51.643"/>
        <polygon fill="#435363" points=".109 77.027 7.873 85.489 9.559 85.489 1.795 77.027"/>
        <polygon fill="#FFFFFF" points="1.385 83.022 4.356 83.952 9.537 78.201 6.641 77.273"/>
        <polygon fill="#8B99A6" points="7.955 77.027 .191 85.489 1.877 85.489 9.641 77.027"/>
        <polygon fill="#8B99A6" points=".19 68.565 7.955 77.027 9.641 77.027 1.877 68.565"/>
        <polygon fill="#435363" points="7.873 68.565 .108 77.027 1.795 77.027 9.559 68.565"/>
        <polygon fill="#435363" points=".109 93.95 7.873 102.412 9.559 102.412 1.795 93.95"/>
        <polygon fill="#FFFFFF" points="1.385 99.946 4.356 100.875 9.537 95.124 6.641 94.196"/>
        <polygon fill="#8B99A6" points="7.955 93.95 .191 102.412 1.877 102.412 9.641 93.95"/>
        <polygon fill="#8B99A6" points=".19 85.489 7.955 93.95 9.641 93.95 1.877 85.489"/>
        <polygon fill="#435363" points="7.873 85.489 .108 93.95 1.795 93.95 9.559 85.489"/>
        <polygon fill="#435363" points=".109 110.873 7.873 119.335 9.559 119.335 1.795 110.873"/>
        <polygon fill="#FFFFFF" points="1.385 116.868 4.356 117.798 9.537 112.047 6.641 111.119"/>
        <polygon fill="#8B99A6" points="7.955 110.873 .191 119.335 1.877 119.335 9.641 110.873"/>
        <polygon fill="#8B99A6" points=".19 102.412 7.955 110.873 9.641 110.873 1.877 102.412"/>
        <polygon fill="#435363" points="7.873 102.412 .108 110.873 1.795 110.873 9.559 102.412"/>
        <polygon fill="#435363" points=".109 127.796 7.873 136.258 9.559 136.258 1.795 127.796"/>
        <polygon fill="#FFFFFF" points="1.385 133.792 4.356 134.721 9.537 128.97 6.641 128.043"/>
        <polygon fill="#8B99A6" points="7.955 127.796 .191 136.258 1.877 136.258 9.641 127.796"/>
        <polygon fill="#8B99A6" points=".19 119.334 7.955 127.797 9.641 127.797 1.877 119.334"/>
        <polygon fill="#435363" points="7.873 119.334 .108 127.797 1.795 127.797 9.559 119.334"/>
        <polygon fill="#435363" points=".109 144.719 7.873 153.181 9.559 153.181 1.795 144.719"/>
        <polygon fill="#FFFFFF" points="1.385 150.715 4.356 151.644 9.537 145.893 6.641 144.965"/>
        <polygon fill="#8B99A6" points="7.955 144.719 .191 153.181 1.877 153.181 9.641 144.719"/>
        <polygon fill="#8B99A6" points=".19 136.258 7.955 144.719 9.641 144.719 1.877 136.258"/>
        <polygon fill="#435363" points="7.873 136.258 .108 144.719 1.795 144.719 9.559 136.258"/>
        <polygon fill="#435363" points=".109 161.643 7.873 170.104 9.559 170.104 1.795 161.643"/>
        <polygon fill="#FFFFFF" points="1.385 167.638 4.356 168.567 9.537 162.817 6.641 161.889"/>
        <polygon fill="#8B99A6" points="7.955 161.643 .191 170.104 1.877 170.104 9.641 161.643"/>
        <polygon fill="#8B99A6" points=".19 153.181 7.955 161.643 9.641 161.643 1.877 153.181"/>
        <polygon fill="#435363" points="7.873 153.181 .108 161.643 1.795 161.643 9.559 153.181"/>
        <polygon fill="#435363" points=".109 178.565 7.873 187.027 9.559 187.027 1.795 178.565"/>
        <polygon fill="#FFFFFF" points="1.385 184.561 4.356 185.49 9.537 179.739 6.641 178.812"/>
        <polygon fill="#8B99A6" points="7.955 178.565 .191 187.027 1.877 187.027 9.641 178.565"/>
        <polygon fill="#8B99A6" points=".19 170.104 7.955 178.566 9.641 178.566 1.877 170.104"/>
        <polygon fill="#435363" points="7.873 170.104 .108 178.566 1.795 178.566 9.559 170.104"/>
        <polygon fill="#435363" points=".109 195.488 7.873 203.951 9.559 203.951 1.795 195.488"/>
        <polygon fill="#FFFFFF" points="1.385 201.484 4.356 202.414 9.537 196.662 6.641 195.734"/>
        <polygon fill="#8B99A6" points="7.955 195.488 .191 203.951 1.877 203.951 9.641 195.488"/>
        <polygon fill="#8B99A6" points=".19 187.027 7.955 195.488 9.641 195.488 1.877 187.027"/>
        <polygon fill="#435363" points="7.873 187.027 .108 195.488 1.795 195.488 9.559 187.027"/>
        <polygon fill="#435363" points=".109 212.412 7.873 220.873 9.559 220.873 1.795 212.412"/>
        <polygon fill="#FFFFFF" points="1.385 218.407 4.356 219.336 9.537 213.585 6.641 212.657"/>
        <polygon fill="#8B99A6" points="7.955 212.412 .191 220.873 1.877 220.873 9.641 212.412"/>
        <polygon fill="#8B99A6" points=".19 203.95 7.955 212.412 9.641 212.412 1.877 203.95"/>
        <polygon fill="#435363" points="7.873 203.95 .108 212.412 1.795 212.412 9.559 203.95"/>
        <polygon fill="#435363" points=".109 229.334 7.873 237.797 9.559 237.797 1.795 229.334"/>
        <polygon fill="#FFFFFF" points="1.385 235.33 4.356 236.26 9.537 230.508 6.641 229.581"/>
        <polygon fill="#8B99A6" points="7.955 229.334 .191 237.797 1.877 237.797 9.641 229.334"/>
        <polygon fill="#8B99A6" points=".19 220.873 7.955 229.335 9.641 229.335 1.877 220.873"/>
        <polygon fill="#435363" points="7.873 220.873 .108 229.335 1.795 229.335 9.559 220.873"/>
        <polygon fill="#435363" points=".109 246.258 7.873 254.719 9.559 254.719 1.795 246.258"/>
        <polygon fill="#FFFFFF" points="1.385 252.253 4.356 253.183 9.537 247.432 6.641 246.503"/>
        <polygon fill="#8B99A6" points="7.955 246.258 .191 254.719 1.877 254.719 9.641 246.258"/>
        <polygon fill="#8B99A6" points=".19 237.797 7.955 246.258 9.641 246.258 1.877 237.797"/>
        <polygon fill="#435363" points="7.873 237.797 .108 246.258 1.795 246.258 9.559 237.797"/>
        <polygon fill="#435363" points=".109 263.181 7.873 271.642 9.559 271.642 1.795 263.181"/>
        <polygon fill="#FFFFFF" points="1.385 269.176 4.356 270.105 9.537 264.355 6.641 263.427"/>
        <polygon fill="#8B99A6" points="7.955 263.181 .191 271.642 1.877 271.642 9.641 263.181"/>
        <polygon fill="#8B99A6" points=".19 254.719 7.955 263.181 9.641 263.181 1.877 254.719"/>
        <polygon fill="#435363" points="7.873 254.719 .108 263.181 1.795 263.181 9.559 254.719"/>
        <polygon fill="#435363" points=".109 280.104 7.873 288.566 9.559 288.566 1.795 280.104"/>
        <polygon fill="#FFFFFF" points="1.385 286.1 4.356 287.029 9.537 281.278 6.641 280.35"/>
        <polygon fill="#8B99A6" points="7.955 280.104 .191 288.566 1.877 288.566 9.641 280.104"/>
        <polygon fill="#8B99A6" points=".19 271.642 7.955 280.104 9.641 280.104 1.877 271.642"/>
        <polygon fill="#435363" points="7.873 271.642 .108 280.104 1.795 280.104 9.559 271.642"/>
        <polygon fill="#435363" points=".109 297.027 7.873 305.488 9.559 305.488 1.795 297.027"/>
        <polygon fill="#FFFFFF" points="1.385 303.022 4.356 303.952 9.537 298.201 6.641 297.273"/>
        <polygon fill="#8B99A6" points="7.955 297.027 .191 305.488 1.877 305.488 9.641 297.027"/>
        <polygon fill="#8B99A6" points=".19 288.566 7.955 297.027 9.641 297.027 1.877 288.566"/>
        <polygon fill="#435363" points="7.873 288.566 .108 297.027 1.795 297.027 9.559 288.566"/>
        <polygon fill="#435363" points=".109 313.95 7.873 322.411 9.559 322.411 1.795 313.95"/>
        <polygon fill="#FFFFFF" points="1.385 319.945 4.356 320.875 9.537 315.124 6.641 314.196"/>
        <polygon fill="#8B99A6" points="7.955 313.95 .191 322.411 1.877 322.411 9.641 313.95"/>
        <polygon fill="#8B99A6" points=".19 305.488 7.955 313.95 9.641 313.95 1.877 305.488"/>
        <polygon fill="#435363" points="7.873 305.488 .108 313.95 1.795 313.95 9.559 305.488"/>
        <polygon fill="#435363" points=".109 330.872 7.873 339.335 9.559 339.335 1.795 330.872"/>
        <polygon fill="#FFFFFF" points="1.385 336.868 4.356 337.799 9.537 332.046 6.641 331.119"/>
        <polygon fill="#8B99A6" points="7.955 330.872 .191 339.335 1.877 339.335 9.641 330.872"/>
        <polygon fill="#8B99A6" points=".19 322.411 7.955 330.873 9.641 330.873 1.877 322.411"/>
        <polygon fill="#435363" points="7.873 322.411 .108 330.873 1.795 330.873 9.559 322.411"/>
        <polygon fill="#435363" points=".109 347.796 7.873 356.257 9.559 356.257 1.795 347.796"/>
        <polygon fill="#FFFFFF" points="1.385 353.791 4.356 354.721 9.537 348.97 6.641 348.042"/>
        <polygon fill="#8B99A6" points="7.955 347.796 .191 356.257 1.877 356.257 9.641 347.796"/>
        <polygon fill="#8B99A6" points=".19 339.335 7.955 347.796 9.641 347.796 1.877 339.335"/>
        <polygon fill="#435363" points="7.873 339.335 .108 347.796 1.795 347.796 9.559 339.335"/>
        <polygon fill="#435363" points=".109 364.719 7.873 373.181 9.559 373.181 1.795 364.719"/>
        <polygon fill="#FFFFFF" points="1.385 370.714 4.356 371.645 9.537 365.893 6.641 364.965"/>
        <polygon fill="#8B99A6" points="7.955 364.719 .191 373.181 1.877 373.181 9.641 364.719"/>
        <polygon fill="#8B99A6" points=".19 356.257 7.955 364.719 9.641 364.719 1.877 356.257"/>
        <polygon fill="#435363" points="7.873 356.257 .108 364.719 1.795 364.719 9.559 356.257"/>
        <polygon fill="#435363" points=".109 381.642 7.873 390.104 9.559 390.104 1.795 381.642"/>
        <polygon fill="#FFFFFF" points="1.385 387.638 4.356 388.568 9.537 382.816 6.641 381.888"/>
        <polygon fill="#8B99A6" points="7.955 381.642 .191 390.104 1.877 390.104 9.641 381.642"/>
        <polygon fill="#8B99A6" points=".19 373.181 7.955 381.642 9.641 381.642 1.877 373.181"/>
        <polygon fill="#435363" points="7.873 373.181 .108 381.642 1.795 381.642 9.559 373.181"/>
        <polygon fill="#435363" points=".109 398.565 7.873 407.026 9.559 407.026 1.795 398.565"/>
        <polygon fill="#FFFFFF" points="1.385 404.56 4.356 405.491 9.537 399.739 6.641 398.811"/>
        <polygon fill="#8B99A6" points="7.955 398.565 .191 407.026 1.877 407.026 9.641 398.565"/>
        <polygon fill="#8B99A6" points=".19 390.104 7.955 398.565 9.641 398.565 1.877 390.104"/>
        <polygon fill="#435363" points="7.873 390.104 .108 398.565 1.795 398.565 9.559 390.104"/>
        <polygon fill="#435363" points=".109 415.488 7.873 423.95 9.559 423.95 1.795 415.488"/>
        <polygon fill="#FFFFFF" points="1.385 421.484 4.356 422.414 9.537 416.662 6.641 415.735"/>
        <polygon fill="#8B99A6" points="7.955 415.488 .191 423.95 1.877 423.95 9.641 415.488"/>
        <polygon fill="#8B99A6" points=".19 407.026 7.955 415.489 9.641 415.489 1.877 407.026"/>
        <polygon fill="#435363" points="7.873 407.026 .108 415.489 1.795 415.489 9.559 407.026"/>
        <polygon fill="#8B99A6" points=".19 423.95 7.955 432.411 9.641 432.411 1.877 423.95"/>
        <polygon fill="#435363" points="7.873 423.95 .108 432.411 1.795 432.411 9.559 423.95"/>
      </g>
      <g transform="rotate(90 431.5 432.5)">
        <polygon fill="#435363" points="7.68 17.862 9.366 17.9 1.796 9.265 .11 9.226"/>
        <polygon fill="#FFFFFF" points="1.25 15.249 4.2 16.246 9.508 10.614 6.634 9.62"/>
        <polygon fill="#8B99A6" points="0 17.688 1.686 17.725 9.64 9.442 7.954 9.405"/>
        <polygon fill="#8B99A6" points="7.954 9.405 9.639 9.443 2.069 .807 .383 .769"/>
        <polygon fill="#435363" points=".109 9.226 1.796 9.265 9.75 .982 8.064 .943"/>
        <polygon fill="#435363" points=".109 26.258 7.873 34.719 9.559 34.719 1.795 26.258"/>
        <polygon fill="#FFFFFF" points="1.385 32.253 4.356 33.182 9.537 27.432 6.641 26.504"/>
        <polygon fill="#8B99A6" points="7.955 26.258 .191 34.719 1.877 34.719 9.641 26.258"/>
        <polygon fill="#8B99A6" points=".19 17.796 7.955 26.258 9.641 26.258 1.877 17.796"/>
        <polygon fill="#435363" points="7.873 17.796 .108 26.258 1.795 26.258 9.559 17.796"/>
        <polygon fill="#435363" points=".109 43.181 7.873 51.643 9.559 51.643 1.795 43.181"/>
        <polygon fill="#FFFFFF" points="1.385 49.176 4.356 50.106 9.537 44.354 6.641 43.427"/>
        <polygon fill="#8B99A6" points="7.955 43.181 .191 51.643 1.877 51.643 9.641 43.181"/>
        <polygon fill="#8B99A6" points=".19 34.719 7.955 43.181 9.641 43.181 1.877 34.719"/>
        <polygon fill="#435363" points="7.873 34.719 .108 43.181 1.795 43.181 9.559 34.719"/>
        <polygon fill="#435363" points=".109 60.104 7.873 68.566 9.559 68.566 1.795 60.104"/>
        <polygon fill="#FFFFFF" points="1.385 66.099 4.356 67.029 9.537 61.278 6.641 60.35"/>
        <polygon fill="#8B99A6" points="7.955 60.104 .191 68.566 1.877 68.566 9.641 60.104"/>
        <polygon fill="#8B99A6" points=".19 51.643 7.955 60.104 9.641 60.104 1.877 51.643"/>
        <polygon fill="#435363" points="7.873 51.643 .108 60.104 1.795 60.104 9.559 51.643"/>
        <polygon fill="#435363" points=".109 77.027 7.873 85.489 9.559 85.489 1.795 77.027"/>
        <polygon fill="#FFFFFF" points="1.385 83.022 4.356 83.952 9.537 78.201 6.641 77.273"/>
        <polygon fill="#8B99A6" points="7.955 77.027 .191 85.489 1.877 85.489 9.641 77.027"/>
        <polygon fill="#8B99A6" points=".19 68.565 7.955 77.027 9.641 77.027 1.877 68.565"/>
        <polygon fill="#435363" points="7.873 68.565 .108 77.027 1.795 77.027 9.559 68.565"/>
        <polygon fill="#435363" points=".109 93.95 7.873 102.412 9.559 102.412 1.795 93.95"/>
        <polygon fill="#FFFFFF" points="1.385 99.946 4.356 100.875 9.537 95.124 6.641 94.196"/>
        <polygon fill="#8B99A6" points="7.955 93.95 .191 102.412 1.877 102.412 9.641 93.95"/>
        <polygon fill="#8B99A6" points=".19 85.489 7.955 93.95 9.641 93.95 1.877 85.489"/>
        <polygon fill="#435363" points="7.873 85.489 .108 93.95 1.795 93.95 9.559 85.489"/>
        <polygon fill="#435363" points=".109 110.873 7.873 119.335 9.559 119.335 1.795 110.873"/>
        <polygon fill="#FFFFFF" points="1.385 116.868 4.356 117.798 9.537 112.047 6.641 111.119"/>
        <polygon fill="#8B99A6" points="7.955 110.873 .191 119.335 1.877 119.335 9.641 110.873"/>
        <polygon fill="#8B99A6" points=".19 102.412 7.955 110.873 9.641 110.873 1.877 102.412"/>
        <polygon fill="#435363" points="7.873 102.412 .108 110.873 1.795 110.873 9.559 102.412"/>
        <polygon fill="#435363" points=".109 127.796 7.873 136.258 9.559 136.258 1.795 127.796"/>
        <polygon fill="#FFFFFF" points="1.385 133.792 4.356 134.721 9.537 128.97 6.641 128.043"/>
        <polygon fill="#8B99A6" points="7.955 127.796 .191 136.258 1.877 136.258 9.641 127.796"/>
        <polygon fill="#8B99A6" points=".19 119.334 7.955 127.797 9.641 127.797 1.877 119.334"/>
        <polygon fill="#435363" points="7.873 119.334 .108 127.797 1.795 127.797 9.559 119.334"/>
        <polygon fill="#435363" points=".109 144.719 7.873 153.181 9.559 153.181 1.795 144.719"/>
        <polygon fill="#FFFFFF" points="1.385 150.715 4.356 151.644 9.537 145.893 6.641 144.965"/>
        <polygon fill="#8B99A6" points="7.955 144.719 .191 153.181 1.877 153.181 9.641 144.719"/>
        <polygon fill="#8B99A6" points=".19 136.258 7.955 144.719 9.641 144.719 1.877 136.258"/>
        <polygon fill="#435363" points="7.873 136.258 .108 144.719 1.795 144.719 9.559 136.258"/>
        <polygon fill="#435363" points=".109 161.643 7.873 170.104 9.559 170.104 1.795 161.643"/>
        <polygon fill="#FFFFFF" points="1.385 167.638 4.356 168.567 9.537 162.817 6.641 161.889"/>
        <polygon fill="#8B99A6" points="7.955 161.643 .191 170.104 1.877 170.104 9.641 161.643"/>
        <polygon fill="#8B99A6" points=".19 153.181 7.955 161.643 9.641 161.643 1.877 153.181"/>
        <polygon fill="#435363" points="7.873 153.181 .108 161.643 1.795 161.643 9.559 153.181"/>
        <polygon fill="#435363" points=".109 178.565 7.873 187.027 9.559 187.027 1.795 178.565"/>
        <polygon fill="#FFFFFF" points="1.385 184.561 4.356 185.49 9.537 179.739 6.641 178.812"/>
        <polygon fill="#8B99A6" points="7.955 178.565 .191 187.027 1.877 187.027 9.641 178.565"/>
        <polygon fill="#8B99A6" points=".19 170.104 7.955 178.566 9.641 178.566 1.877 170.104"/>
        <polygon fill="#435363" points="7.873 170.104 .108 178.566 1.795 178.566 9.559 170.104"/>
        <polygon fill="#435363" points=".109 195.488 7.873 203.951 9.559 203.951 1.795 195.488"/>
        <polygon fill="#FFFFFF" points="1.385 201.484 4.356 202.414 9.537 196.662 6.641 195.734"/>
        <polygon fill="#8B99A6" points="7.955 195.488 .191 203.951 1.877 203.951 9.641 195.488"/>
        <polygon fill="#8B99A6" points=".19 187.027 7.955 195.488 9.641 195.488 1.877 187.027"/>
        <polygon fill="#435363" points="7.873 187.027 .108 195.488 1.795 195.488 9.559 187.027"/>
        <polygon fill="#435363" points=".109 212.412 7.873 220.873 9.559 220.873 1.795 212.412"/>
        <polygon fill="#FFFFFF" points="1.385 218.407 4.356 219.336 9.537 213.585 6.641 212.657"/>
        <polygon fill="#8B99A6" points="7.955 212.412 .191 220.873 1.877 220.873 9.641 212.412"/>
        <polygon fill="#8B99A6" points=".19 203.95 7.955 212.412 9.641 212.412 1.877 203.95"/>
        <polygon fill="#435363" points="7.873 203.95 .108 212.412 1.795 212.412 9.559 203.95"/>
        <polygon fill="#435363" points=".109 229.334 7.873 237.797 9.559 237.797 1.795 229.334"/>
        <polygon fill="#FFFFFF" points="1.385 235.33 4.356 236.26 9.537 230.508 6.641 229.581"/>
        <polygon fill="#8B99A6" points="7.955 229.334 .191 237.797 1.877 237.797 9.641 229.334"/>
        <polygon fill="#8B99A6" points=".19 220.873 7.955 229.335 9.641 229.335 1.877 220.873"/>
        <polygon fill="#435363" points="7.873 220.873 .108 229.335 1.795 229.335 9.559 220.873"/>
        <polygon fill="#435363" points=".109 246.258 7.873 254.719 9.559 254.719 1.795 246.258"/>
        <polygon fill="#FFFFFF" points="1.385 252.253 4.356 253.183 9.537 247.432 6.641 246.503"/>
        <polygon fill="#8B99A6" points="7.955 246.258 .191 254.719 1.877 254.719 9.641 246.258"/>
        <polygon fill="#8B99A6" points=".19 237.797 7.955 246.258 9.641 246.258 1.877 237.797"/>
        <polygon fill="#435363" points="7.873 237.797 .108 246.258 1.795 246.258 9.559 237.797"/>
        <polygon fill="#435363" points=".109 263.181 7.873 271.642 9.559 271.642 1.795 263.181"/>
        <polygon fill="#FFFFFF" points="1.385 269.176 4.356 270.105 9.537 264.355 6.641 263.427"/>
        <polygon fill="#8B99A6" points="7.955 263.181 .191 271.642 1.877 271.642 9.641 263.181"/>
        <polygon fill="#8B99A6" points=".19 254.719 7.955 263.181 9.641 263.181 1.877 254.719"/>
        <polygon fill="#435363" points="7.873 254.719 .108 263.181 1.795 263.181 9.559 254.719"/>
        <polygon fill="#435363" points=".109 280.104 7.873 288.566 9.559 288.566 1.795 280.104"/>
        <polygon fill="#FFFFFF" points="1.385 286.1 4.356 287.029 9.537 281.278 6.641 280.35"/>
        <polygon fill="#8B99A6" points="7.955 280.104 .191 288.566 1.877 288.566 9.641 280.104"/>
        <polygon fill="#8B99A6" points=".19 271.642 7.955 280.104 9.641 280.104 1.877 271.642"/>
        <polygon fill="#435363" points="7.873 271.642 .108 280.104 1.795 280.104 9.559 271.642"/>
        <polygon fill="#435363" points=".109 297.027 7.873 305.488 9.559 305.488 1.795 297.027"/>
        <polygon fill="#FFFFFF" points="1.385 303.022 4.356 303.952 9.537 298.201 6.641 297.273"/>
        <polygon fill="#8B99A6" points="7.955 297.027 .191 305.488 1.877 305.488 9.641 297.027"/>
        <polygon fill="#8B99A6" points=".19 288.566 7.955 297.027 9.641 297.027 1.877 288.566"/>
        <polygon fill="#435363" points="7.873 288.566 .108 297.027 1.795 297.027 9.559 288.566"/>
        <polygon fill="#435363" points=".109 313.95 7.873 322.411 9.559 322.411 1.795 313.95"/>
        <polygon fill="#FFFFFF" points="1.385 319.945 4.356 320.875 9.537 315.124 6.641 314.196"/>
        <polygon fill="#8B99A6" points="7.955 313.95 .191 322.411 1.877 322.411 9.641 313.95"/>
        <polygon fill="#8B99A6" points=".19 305.488 7.955 313.95 9.641 313.95 1.877 305.488"/>
        <polygon fill="#435363" points="7.873 305.488 .108 313.95 1.795 313.95 9.559 305.488"/>
        <polygon fill="#435363" points=".109 330.872 7.873 339.335 9.559 339.335 1.795 330.872"/>
        <polygon fill="#FFFFFF" points="1.385 336.868 4.356 337.799 9.537 332.046 6.641 331.119"/>
        <polygon fill="#8B99A6" points="7.955 330.872 .191 339.335 1.877 339.335 9.641 330.872"/>
        <polygon fill="#8B99A6" points=".19 322.411 7.955 330.873 9.641 330.873 1.877 322.411"/>
        <polygon fill="#435363" points="7.873 322.411 .108 330.873 1.795 330.873 9.559 322.411"/>
        <polygon fill="#435363" points=".109 347.796 7.873 356.257 9.559 356.257 1.795 347.796"/>
        <polygon fill="#FFFFFF" points="1.385 353.791 4.356 354.721 9.537 348.97 6.641 348.042"/>
        <polygon fill="#8B99A6" points="7.955 347.796 .191 356.257 1.877 356.257 9.641 347.796"/>
        <polygon fill="#8B99A6" points=".19 339.335 7.955 347.796 9.641 347.796 1.877 339.335"/>
        <polygon fill="#435363" points="7.873 339.335 .108 347.796 1.795 347.796 9.559 339.335"/>
        <polygon fill="#435363" points=".109 364.719 7.873 373.181 9.559 373.181 1.795 364.719"/>
        <polygon fill="#FFFFFF" points="1.385 370.714 4.356 371.645 9.537 365.893 6.641 364.965"/>
        <polygon fill="#8B99A6" points="7.955 364.719 .191 373.181 1.877 373.181 9.641 364.719"/>
        <polygon fill="#8B99A6" points=".19 356.257 7.955 364.719 9.641 364.719 1.877 356.257"/>
        <polygon fill="#435363" points="7.873 356.257 .108 364.719 1.795 364.719 9.559 356.257"/>
        <polygon fill="#435363" points=".109 381.642 7.873 390.104 9.559 390.104 1.795 381.642"/>
        <polygon fill="#FFFFFF" points="1.385 387.638 4.356 388.568 9.537 382.816 6.641 381.888"/>
        <polygon fill="#8B99A6" points="7.955 381.642 .191 390.104 1.877 390.104 9.641 381.642"/>
        <polygon fill="#8B99A6" points=".19 373.181 7.955 381.642 9.641 381.642 1.877 373.181"/>
        <polygon fill="#435363" points="7.873 373.181 .108 381.642 1.795 381.642 9.559 373.181"/>
        <polygon fill="#435363" points=".109 398.565 7.873 407.026 9.559 407.026 1.795 398.565"/>
        <polygon fill="#FFFFFF" points="1.385 404.56 4.356 405.491 9.537 399.739 6.641 398.811"/>
        <polygon fill="#8B99A6" points="7.955 398.565 .191 407.026 1.877 407.026 9.641 398.565"/>
        <polygon fill="#8B99A6" points=".19 390.104 7.955 398.565 9.641 398.565 1.877 390.104"/>
        <polygon fill="#435363" points="7.873 390.104 .108 398.565 1.795 398.565 9.559 390.104"/>
        <polygon fill="#435363" points=".109 415.488 7.873 423.95 9.559 423.95 1.795 415.488"/>
        <polygon fill="#FFFFFF" points="1.385 421.484 4.356 422.414 9.537 416.662 6.641 415.735"/>
        <polygon fill="#8B99A6" points="7.955 415.488 .191 423.95 1.877 423.95 9.641 415.488"/>
        <polygon fill="#8B99A6" points=".19 407.026 7.955 415.489 9.641 415.489 1.877 407.026"/>
        <polygon fill="#435363" points="7.873 407.026 .108 415.489 1.795 415.489 9.559 407.026"/>
        <polygon fill="#8B99A6" points=".19 423.95 7.955 432.411 9.641 432.411 1.877 423.95"/>
        <polygon fill="#435363" points="7.873 423.95 .108 432.411 1.795 432.411 9.559 423.95"/>
      </g>
    </g>
    <g transform="translate(407)">
      <use fill="black" filter="url(#a)" xlink:href="#b"/>
      <use fill="#FFFFFF" xlink:href="#b"/>
      <use fill="#FFFFFF" xlink:href="#c"/>
      <path stroke="#F5F5F5" d="M25.4237288,4.81280964 L46.1101695,16.6040808 L46.1101695,40.1755802 L25.4237288,51.9668514 L4.73728814,40.1755802 L4.73728814,16.6040808 L25.4237288,4.81280964 Z"/>
      <text fill="#63AA93" font-family="Gotham-Medium, Gotham" font-size="18" font-weight="400">
        <tspan x="17.248" y="35">Q</tspan>
      </text>
    </g>
  </g>
</svg>
