<svg xmlns="http://www.w3.org/2000/svg" width="10" height="433" viewBox="0 0 10 433">
  <g fill="none" fill-rule="evenodd">
    <path fill="#435363" d="M5.26887606,15.1112018 L7.68046154,17.8621538 L9.36584615,17.8998462 L6.12488804,14.2030923 L5.26887606,15.1112018 Z M3.41005421,12.9908001 L0.109692308,9.226 L1.79584615,9.26523077 L4.27203482,12.089661 L3.41005421,12.9908001 Z"/>
    <polygon fill="#8B99A6" points="0 17.688 1.686 17.725 9.64 9.442 7.954 9.405"/>
    <polygon fill="#8B99A6" points="7.954 9.405 9.639 9.443 2.069 .807 .383 .769"/>
    <polygon fill="#435363" points=".109 9.226 1.796 9.265 9.75 .982 8.064 .943"/>
    <path fill="#435363" d="M4.33516596,29.0260987 L1.79484615,26.2577692 L0.108692308,26.2577692 L3.49371566,29.9466197 L4.33516596,29.0260987 Z M6.2351288,31.0965952 L9.55946154,34.7193077 L7.87330769,34.7193077 L5.39981892,32.0238077 L6.2351288,31.0965952 Z"/>
    <polygon fill="#8B99A6" points="7.955 26.258 .191 34.719 1.877 34.719 9.641 26.258"/>
    <polygon fill="#8B99A6" points=".19 17.796 7.955 26.258 9.641 26.258 1.877 17.796"/>
    <polygon fill="#435363" points="7.873 17.796 .108 26.258 1.795 26.258 9.559 17.796"/>
    <path fill="#435363" d="M4.33505071,45.948994 L1.79484615,43.1805385 L0.108692308,43.1805385 L3.4935621,46.8695569 L4.33505071,45.948994 Z M6.23515168,48.0198292 L9.55946154,51.6428462 L7.87330769,51.6428462 L5.39985987,48.9471458 L6.23515168,48.0198292 Z"/>
    <polygon fill="#8B99A6" points="7.955 43.181 .191 51.643 1.877 51.643 9.641 43.181"/>
    <polygon fill="#8B99A6" points=".19 34.719 7.955 43.181 9.641 43.181 1.877 34.719"/>
    <polygon fill="#435363" points="7.873 34.719 .108 43.181 1.795 43.181 9.559 34.719"/>
    <path fill="#435363" d="M4.33516596,62.8723295 L1.79484615,60.104 L0.108692308,60.104 L3.49371566,63.7928505 L4.33516596,62.8723295 Z M6.2351288,64.9428259 L9.55946154,68.5655385 L7.87330769,68.5655385 L5.39981892,65.8700385 L6.2351288,64.9428259 Z"/>
    <polygon fill="#8B99A6" points="7.955 60.104 .191 68.566 1.877 68.566 9.641 60.104"/>
    <polygon fill="#8B99A6" points=".19 51.643 7.955 60.104 9.641 60.104 1.877 51.643"/>
    <polygon fill="#435363" points="7.873 51.643 .108 60.104 1.795 60.104 9.559 51.643"/>
    <path fill="#435363" d="M4.33505071,79.7952248 L1.79484615,77.0267692 L0.108692308,77.0267692 L3.4935621,80.7157877 L4.33505071,79.7952248 Z M6.23515168,81.86606 L9.55946154,85.4890769 L7.87330769,85.4890769 L5.39985987,82.7933766 L6.23515168,81.86606 Z"/>
    <polygon fill="#8B99A6" points="7.955 77.027 .191 85.489 1.877 85.489 9.641 77.027"/>
    <polygon fill="#8B99A6" points=".19 68.565 7.955 77.027 9.641 77.027 1.877 68.565"/>
    <polygon fill="#435363" points="7.873 68.565 .108 77.027 1.795 77.027 9.559 68.565"/>
    <path fill="#435363" d="M4.33516596,96.7185603 L1.79484615,93.9502308 L0.108692308,93.9502308 L3.49371566,97.6390813 L4.33516596,96.7185603 Z M6.2351288,98.7890567 L9.55946154,102.411769 L7.87330769,102.411769 L5.39981892,99.7162693 L6.2351288,98.7890567 Z"/>
    <polygon fill="#8B99A6" points="7.955 93.95 .191 102.412 1.877 102.412 9.641 93.95"/>
    <polygon fill="#8B99A6" points=".19 85.489 7.955 93.95 9.641 93.95 1.877 85.489"/>
    <polygon fill="#435363" points="7.873 85.489 .108 93.95 1.795 93.95 9.559 85.489"/>
    <path fill="#435363" d="M4.33516596,113.641329 L1.79484615,110.873 L0.108692308,110.873 L3.49371566,114.56185 L4.33516596,113.641329 Z M6.2351288,115.711826 L9.55946154,119.334538 L7.87330769,119.334538 L5.39981892,116.639039 L6.2351288,115.711826 Z"/>
    <polygon fill="#8B99A6" points="7.955 110.873 .191 119.335 1.877 119.335 9.641 110.873"/>
    <polygon fill="#8B99A6" points=".19 102.412 7.955 110.873 9.641 110.873 1.877 102.412"/>
    <polygon fill="#435363" points="7.873 102.412 .108 110.873 1.795 110.873 9.559 102.412"/>
    <path fill="#435363" d="M4.33516596,130.564791 L1.79484615,127.796462 L0.108692308,127.796462 L3.49371566,131.485312 L4.33516596,130.564791 Z M6.2351288,132.635287 L9.55946154,136.258 L7.87330769,136.258 L5.39981892,133.5625 L6.2351288,132.635287 Z"/>
    <polygon fill="#8B99A6" points="7.955 127.796 .191 136.258 1.877 136.258 9.641 127.796"/>
    <polygon fill="#8B99A6" points=".19 119.334 7.955 127.797 9.641 127.797 1.877 119.334"/>
    <polygon fill="#435363" points="7.873 119.334 .108 127.797 1.795 127.797 9.559 119.334"/>
    <path fill="#435363" d="M4.33516596,147.48756 L1.79484615,144.719231 L0.108692308,144.719231 L3.49371566,148.408081 L4.33516596,147.48756 Z M6.2351288,149.558057 L9.55946154,153.180769 L7.87330769,153.180769 L5.39981892,150.485269 L6.2351288,149.558057 Z"/>
    <polygon fill="#8B99A6" points="7.955 144.719 .191 153.181 1.877 153.181 9.641 144.719"/>
    <polygon fill="#8B99A6" points=".19 136.258 7.955 144.719 9.641 144.719 1.877 136.258"/>
    <polygon fill="#435363" points="7.873 136.258 .108 144.719 1.795 144.719 9.559 136.258"/>
    <path fill="#435363" d="M4.33516596,164.411022 L1.79484615,161.642692 L0.108692308,161.642692 L3.49371566,165.331543 L4.33516596,164.411022 Z M6.2351288,166.481518 L9.55946154,170.104231 L7.87330769,170.104231 L5.39981892,167.408731 L6.2351288,166.481518 Z"/>
    <polygon fill="#8B99A6" points="7.955 161.643 .191 170.104 1.877 170.104 9.641 161.643"/>
    <polygon fill="#8B99A6" points=".19 153.181 7.955 161.643 9.641 161.643 1.877 153.181"/>
    <polygon fill="#435363" points="7.873 153.181 .108 161.643 1.795 161.643 9.559 153.181"/>
    <path fill="#435363" d="M4.33516596,181.333791 L1.79484615,178.565462 L0.108692308,178.565462 L3.49371566,182.254312 L4.33516596,181.333791 Z M6.2351288,183.404287 L9.55946154,187.027 L7.87330769,187.027 L5.39981892,184.3315 L6.2351288,183.404287 Z"/>
    <polygon fill="#8B99A6" points="7.955 178.565 .191 187.027 1.877 187.027 9.641 178.565"/>
    <polygon fill="#8B99A6" points=".19 170.104 7.955 178.566 9.641 178.566 1.877 170.104"/>
    <polygon fill="#435363" points="7.873 170.104 .108 178.566 1.795 178.566 9.559 170.104"/>
    <path fill="#435363" d="M4.33505071,198.256686 L1.79484615,195.488231 L0.108692308,195.488231 L3.4935621,199.177249 L4.33505071,198.256686 Z M6.23515168,200.327522 L9.55946154,203.950538 L7.87330769,203.950538 L5.39985987,201.254838 L6.23515168,200.327522 Z"/>
    <polygon fill="#8B99A6" points="7.955 195.488 .191 203.951 1.877 203.951 9.641 195.488"/>
    <polygon fill="#8B99A6" points=".19 187.027 7.955 195.488 9.641 195.488 1.877 187.027"/>
    <polygon fill="#435363" points="7.873 187.027 .108 195.488 1.795 195.488 9.559 187.027"/>
    <path fill="#435363" d="M4.33496825,215.179806 L1.79484615,212.411692 L0.108692308,212.411692 L3.49357435,216.100389 L4.33496825,215.179806 Z M6.23500198,217.25038 L9.55946154,220.873231 L7.87330769,220.873231 L5.39974848,218.177654 L6.23500198,217.25038 Z"/>
    <polygon fill="#8B99A6" points="7.955 212.412 .191 220.873 1.877 220.873 9.641 212.412"/>
    <polygon fill="#8B99A6" points=".19 203.95 7.955 212.412 9.641 212.412 1.877 203.95"/>
    <polygon fill="#435363" points="7.873 203.95 .108 212.412 1.795 212.412 9.559 203.95"/>
    <path fill="#435363" d="M4.33505071,232.102917 L1.79484615,229.334462 L0.108692308,229.334462 L3.4935621,233.02348 L4.33505071,232.102917 Z M6.23515168,234.173752 L9.55946154,237.796769 L7.87330769,237.796769 L5.39985987,235.101069 L6.23515168,234.173752 Z"/>
    <polygon fill="#8B99A6" points="7.955 229.334 .191 237.797 1.877 237.797 9.641 229.334"/>
    <polygon fill="#8B99A6" points=".19 220.873 7.955 229.335 9.641 229.335 1.877 220.873"/>
    <polygon fill="#435363" points="7.873 220.873 .108 229.335 1.795 229.335 9.559 220.873"/>
    <path fill="#435363" d="M4.33496825,249.026037 L1.79484615,246.257923 L0.108692308,246.257923 L3.49357435,249.94662 L4.33496825,249.026037 Z M6.2351288,251.096749 L9.55946154,254.719462 L7.87330769,254.719462 L5.39981892,252.023962 L6.2351288,251.096749 Z"/>
    <polygon fill="#8B99A6" points="7.955 246.258 .191 254.719 1.877 254.719 9.641 246.258"/>
    <polygon fill="#8B99A6" points=".19 237.797 7.955 246.258 9.641 246.258 1.877 237.797"/>
    <polygon fill="#435363" points="7.873 237.797 .108 246.258 1.795 246.258 9.559 237.797"/>
    <path fill="#435363" d="M4.33516596,265.949022 L1.79484615,263.180692 L0.108692308,263.180692 L3.49371566,266.869543 L4.33516596,265.949022 Z M6.2351288,268.019518 L9.55946154,271.642231 L7.87330769,271.642231 L5.39981892,268.946731 L6.2351288,268.019518 Z"/>
    <polygon fill="#8B99A6" points="7.955 263.181 .191 271.642 1.877 271.642 9.641 263.181"/>
    <polygon fill="#8B99A6" points=".19 254.719 7.955 263.181 9.641 263.181 1.877 254.719"/>
    <polygon fill="#435363" points="7.873 254.719 .108 263.181 1.795 263.181 9.559 254.719"/>
    <path fill="#435363" d="M4.33516596,282.872483 L1.79484615,280.104154 L0.108692308,280.104154 L3.49371566,283.793004 L4.33516596,282.872483 Z M6.2351288,284.94298 L9.55946154,288.565692 L7.87330769,288.565692 L5.39981892,285.870192 L6.2351288,284.94298 Z"/>
    <polygon fill="#8B99A6" points="7.955 280.104 .191 288.566 1.877 288.566 9.641 280.104"/>
    <polygon fill="#8B99A6" points=".19 271.642 7.955 280.104 9.641 280.104 1.877 271.642"/>
    <polygon fill="#435363" points="7.873 271.642 .108 280.104 1.795 280.104 9.559 271.642"/>
    <path fill="#435363" d="M4.33516596,299.795253 L1.79484615,297.026923 L0.108692308,297.026923 L3.49371566,300.715774 L4.33516596,299.795253 Z M6.2351288,301.865749 L9.55946154,305.488462 L7.87330769,305.488462 L5.39981892,302.792962 L6.2351288,301.865749 Z"/>
    <polygon fill="#8B99A6" points="7.955 297.027 .191 305.488 1.877 305.488 9.641 297.027"/>
    <polygon fill="#8B99A6" points=".19 288.566 7.955 297.027 9.641 297.027 1.877 288.566"/>
    <polygon fill="#435363" points="7.873 288.566 .108 297.027 1.795 297.027 9.559 288.566"/>
    <path fill="#435363" d="M4.33516596,316.718022 L1.79484615,313.949692 L0.108692308,313.949692 L3.49371566,317.638543 L4.33516596,316.718022 Z M6.23535164,318.788761 L9.55946154,322.411231 L7.87330769,322.411231 L5.40009814,319.716035 L6.23535164,318.788761 Z"/>
    <polygon fill="#8B99A6" points="7.955 313.95 .191 322.411 1.877 322.411 9.641 313.95"/>
    <polygon fill="#8B99A6" points=".19 305.488 7.955 313.95 9.641 313.95 1.877 305.488"/>
    <polygon fill="#435363" points="7.873 305.488 .108 313.95 1.795 313.95 9.559 305.488"/>
    <path fill="#435363" d="M4.33505071,333.640917 L1.79484615,330.872462 L0.108692308,330.872462 L3.4935621,334.56148 L4.33505071,333.640917 Z M6.2353745,335.711995 L9.55946154,339.334769 L7.87330769,339.334769 L5.40013905,336.639373 L6.2353745,335.711995 Z"/>
    <polygon fill="#8B99A6" points="7.955 330.872 .191 339.335 1.877 339.335 9.641 330.872"/>
    <polygon fill="#8B99A6" points=".19 322.411 7.955 330.873 9.641 330.873 1.877 322.411"/>
    <polygon fill="#435363" points="7.873 322.411 .108 330.873 1.795 330.873 9.559 322.411"/>
    <path fill="#435363" d="M4.33516596,350.564253 L1.79484615,347.795923 L0.108692308,347.795923 L3.49371566,351.484774 L4.33516596,350.564253 Z M6.23535164,352.634992 L9.55946154,356.257462 L7.87330769,356.257462 L5.40009814,353.562266 L6.23535164,352.634992 Z"/>
    <polygon fill="#8B99A6" points="7.955 347.796 .191 356.257 1.877 356.257 9.641 347.796"/>
    <polygon fill="#8B99A6" points=".19 339.335 7.955 347.796 9.641 347.796 1.877 339.335"/>
    <polygon fill="#435363" points="7.873 339.335 .108 347.796 1.795 347.796 9.559 339.335"/>
    <path fill="#435363" d="M4.33505071,367.487148 L1.79484615,364.718692 L0.108692308,364.718692 L3.4935621,368.407711 L4.33505071,367.487148 Z M6.2353745,369.558226 L9.55946154,373.181 L7.87330769,373.181 L5.40013905,370.485604 L6.2353745,369.558226 Z"/>
    <polygon fill="#8B99A6" points="7.955 364.719 .191 373.181 1.877 373.181 9.641 364.719"/>
    <polygon fill="#8B99A6" points=".19 356.257 7.955 364.719 9.641 364.719 1.877 356.257"/>
    <polygon fill="#435363" points="7.873 356.257 .108 364.719 1.795 364.719 9.559 356.257"/>
    <path fill="#435363" d="M4.33516596,384.410483 L1.79484615,381.642154 L0.108692308,381.642154 L3.49371566,385.331004 L4.33516596,384.410483 Z M6.23535164,386.481223 L9.55946154,390.103692 L7.87330769,390.103692 L5.40009814,387.408497 L6.23535164,386.481223 Z"/>
    <polygon fill="#8B99A6" points="7.955 381.642 .191 390.104 1.877 390.104 9.641 381.642"/>
    <polygon fill="#8B99A6" points=".19 373.181 7.955 381.642 9.641 381.642 1.877 373.181"/>
    <polygon fill="#435363" points="7.873 373.181 .108 381.642 1.795 381.642 9.559 373.181"/>
    <path fill="#435363" d="M4.33516596,401.333253 L1.79484615,398.564923 L0.108692308,398.564923 L3.49371566,402.253774 L4.33516596,401.333253 Z M6.23557445,403.404235 L9.55946154,407.026462 L7.87330769,407.026462 L5.40037732,404.33157 L6.23557445,403.404235 Z"/>
    <polygon fill="#8B99A6" points="7.955 398.565 .191 407.026 1.877 407.026 9.641 398.565"/>
    <polygon fill="#8B99A6" points=".19 390.104 7.955 398.565 9.641 398.565 1.877 390.104"/>
    <polygon fill="#435363" points="7.873 390.104 .108 398.565 1.795 398.565 9.559 390.104"/>
    <path fill="#435363" d="M4.33516596,418.256714 L1.79484615,415.488385 L0.108692308,415.488385 L3.49371566,419.177235 L4.33516596,418.256714 Z M6.23535164,420.327453 L9.55946154,423.949923 L7.87330769,423.949923 L5.40009814,421.254727 L6.23535164,420.327453 Z"/>
    <polygon fill="#8B99A6" points="7.955 415.488 .191 423.95 1.877 423.95 9.641 415.488"/>
    <polygon fill="#8B99A6" points=".19 407.026 7.955 415.489 9.641 415.489 1.877 407.026"/>
    <polygon fill="#435363" points="7.873 407.026 .108 415.489 1.795 415.489 9.559 407.026"/>
    <polygon fill="#8B99A6" points=".19 423.95 7.955 432.411 9.641 432.411 1.877 423.95"/>
    <polygon fill="#435363" points="7.873 423.95 .108 432.411 1.795 432.411 9.559 423.95"/>
  </g>
</svg>
