<svg xmlns="http://www.w3.org/2000/svg" width="158" height="95" viewBox="0 0 158 95">
  <g fill="#F9F9F9" fill-rule="evenodd">
    <path d="M78.444068,0.439071905 L58.2287374,12.1115738 C57.9910761,12.2487312 57.8445127,12.5018674 57.8445127,12.7765184 L57.8445127,36.1205137 C57.8445127,36.3951647 57.9910761,36.6486371 58.2287374,36.7861307 L75.559189,46.7919007 C76.0714887,47.0880666 76.7118632,46.7186156 76.7118632,46.126956 L76.7118632,23.6933097 C76.7118632,23.4189948 76.5652998,23.1651863 76.3276385,23.0280289 L67.5382036,17.9532034 C67.0259039,17.6573737 66.3855294,18.0268247 66.3855294,18.6181481 L66.3855294,21.7727693 C66.3855294,22.0474204 66.5320928,22.3008927 66.7697541,22.4380501 L72.4433718,25.7140288 L72.4433718,40.0647987 L62.1126679,34.0997946 L62.1126679,14.7969014 L78.8286289,5.14579095 L95.5442537,14.7969014 L95.5442537,34.0997946 L85.2128775,40.0647987 L85.2128775,25.7140288 L90.8888483,22.4373778 C91.1265096,22.2998842 91.273073,22.0460757 91.273073,21.7717608 L91.273073,18.6171396 C91.273073,18.0258162 90.6323623,17.6563651 90.1203988,17.9521949 L81.328947,23.0280289 C81.0912857,23.1651863 80.9450584,23.4189948 80.9450584,23.6933097 L80.9450584,46.126956 C80.9450584,46.7186156 81.585433,47.0880666 82.0970603,46.7919007 L99.4275119,36.7861307 C99.6655094,36.6486371 99.8120728,36.3951647 99.8120728,36.1205137 L99.8120728,12.7765184 C99.8120728,12.5018674 99.6655094,12.2487312 99.4275119,12.1115738 L79.2121813,0.439071905 C78.97452,0.301578291 78.6820655,0.301578291 78.444068,0.439071905"/>
    <polygon points="0 57.358 0 73.26 3.498 73.26 3.498 67.104 11.086 67.104 11.086 63.923 3.498 63.923 3.498 60.538 12.108 60.538 12.108 57.358"/>
    <path d="M22.6259962 73.5324588C17.7194833 73.5324588 14.1982637 69.874927 14.1982637 65.3544462L14.1982637 65.3087271C14.1982637 60.7882463 17.7652004 57.0856677 22.6717132 57.0856677 27.57789 57.0856677 31.0991097 60.7425272 31.0991097 65.2636803L31.0991097 65.3087271C31.0991097 69.8298802 27.5328453 73.5324588 22.6259962 73.5324588L22.6259962 73.5324588zM27.4417474 65.3087271C27.4417474 62.5827229 25.4426358 60.3108846 22.6259962 60.3108846 19.8093566 60.3108846 17.855626 62.5373399 17.855626 65.2636803L17.855626 65.3087271C17.855626 68.0350674 19.8544014 70.3065695 22.6717132 70.3065695 25.4883528 70.3065695 27.4417474 68.0804504 27.4417474 65.3544462L27.4417474 65.3087271zM40.8458121 73.509969C36.5749676 73.509969 33.96271 71.1248414 33.96271 66.4446798L33.96271 57.3579992 37.4614074 57.3579992 37.4614074 66.3535777C37.4614074 68.9437691 38.7559388 70.2840797 40.891193 70.2840797 43.0264471 70.2840797 44.3213147 68.9894883 44.3213147 66.4672032L44.3213147 57.3579992 47.8193398 57.3579992 47.8193398 66.3313904C47.8193398 71.1473648 45.1163204 73.509969 40.8458121 73.509969"/>
    <polygon points="62.541 73.26 54.84 63.151 54.84 73.26 51.388 73.26 51.388 57.358 54.613 57.358 62.064 67.149 62.064 57.358 65.517 57.358 65.517 73.26"/>
    <path d="M75.5356918 73.2599928L69.3339752 73.2599928 69.3339752 57.3577975 75.5356918 57.3577975C80.5333026 57.3577975 83.9859467 60.7880782 83.9859467 65.2635122L83.9859467 65.3092313C83.9859467 69.7843291 80.5333026 73.2599928 75.5356918 73.2599928L75.5356918 73.2599928zM80.3289206 65.3092313C80.3289206 62.4917888 78.3980484 60.5157804 75.5356918 60.5157804L72.8323363 60.5157804 72.8323363 70.1020099 75.5356918 70.1020099C78.3980484 70.1020099 80.3289206 68.1710483 80.3289206 65.3542781L80.3289206 65.3092313zM97.7974309 73.2599928L96.3435621 69.6938993 89.6194612 69.6938993 88.1659286 73.2599928 84.5996642 73.2599928 91.4145269 57.2441719 94.6402667 57.2441719 101.454793 73.2599928 97.7974309 73.2599928zM92.9816798 61.4469718L90.868948 66.6041589 95.0944116 66.6041589 92.9816798 61.4469718z"/>
    <polygon points="109.064 60.584 109.064 73.26 105.565 73.26 105.565 60.584 100.727 60.584 100.727 57.358 113.902 57.358 113.902 60.584"/>
    <polygon points="116.742 73.261 120.24 73.261 120.24 57.358 116.742 57.358"/>
    <path d="M131.940421,73.5324588 C127.033908,73.5324588 123.513024,69.874927 123.513024,65.3544462 L123.513024,65.3087271 C123.513024,60.7882463 127.079625,57.0856677 131.986138,57.0856677 C136.892314,57.0856677 140.413534,60.7425272 140.413534,65.2636803 L140.413534,65.3087271 C140.413534,69.8298802 136.847606,73.5324588 131.940421,73.5324588 L131.940421,73.5324588 Z M136.756172,65.3087271 C136.756172,62.5827229 134.75706,60.3108846 131.940421,60.3108846 C129.123781,60.3108846 127.170387,62.5373399 127.170387,65.2636803 L127.170387,65.3087271 C127.170387,68.0350674 129.168826,70.3065695 131.986138,70.3065695 C134.802777,70.3065695 136.756172,68.0804504 136.756172,65.3544462 L136.756172,65.3087271 Z"/>
    <polygon points="154.203 57.358 154.203 67.149 146.752 57.358 143.527 57.358 143.527 73.26 146.98 73.26 146.98 63.151 154.68 73.26 157.656 73.26 157.656 57.358"/>
    <polygon points="43.367 81.097 38.559 88.301 33.751 81.097 32.242 81.097 32.242 94.298 33.694 94.298 33.694 83.624 38.502 90.678 38.578 90.678 43.386 83.606 43.386 94.298 44.876 94.298 44.876 81.097"/>
    <polygon points="48.61 81.097 48.61 94.298 58.246 94.298 58.246 92.94 50.1 92.94 50.1 88.32 57.303 88.32 57.303 86.962 50.1 86.962 50.1 82.455 58.151 82.455 58.151 81.097"/>
    <path d="M65.8266051,94.2980285 L61.2441452,94.2980285 L61.2441452,81.0972969 L65.8266051,81.0972969 C69.9747531,81.0972969 72.8414797,83.9449947 72.8414797,87.6788372 C72.8414797,91.4126797 69.9747531,94.2980285 65.8266051,94.2980285 M65.8266051,82.4739139 L62.7336464,82.4739139 L62.7336464,92.9214116 L65.8266051,92.9214116 C69.1639482,92.9214116 71.2948323,90.6586499 71.2948323,87.7168244 C71.2948323,84.7746628 69.1639482,82.4739139 65.8266051,82.4739139"/>
    <polygon points="76.123 94.298 77.612 94.298 77.612 81.097 76.123 81.097"/>
    <path d="M87.5122087,94.5244056 C83.7032407,94.5244056 80.8933242,91.5257673 80.8933242,87.7169589 C80.8933242,83.9451292 83.6840799,80.8711888 87.5686827,80.8711888 C89.9637844,80.8711888 91.3968116,81.7196824 92.7165546,82.9645207 L91.6983423,84.0580824 C90.5860066,83.0021718 89.3408899,82.2478058 87.5498581,82.2478058 C84.6266574,82.2478058 82.4399716,84.6050313 82.4399716,87.6789717 C82.4399716,90.7525759 84.6461544,93.1477886 87.5498581,93.1477886 C89.3603869,93.1477886 90.5480211,92.4498992 91.8112902,91.2430482 L92.7918532,92.2051673 C91.4153001,93.6002737 89.9073104,94.5244056 87.5122087,94.5244056"/>
    <polygon points="95.526 94.298 97.016 94.298 97.016 81.097 95.526 81.097"/>
    <polygon points="110.593 81.097 110.593 91.677 102.277 81.097 100.881 81.097 100.881 94.298 102.333 94.298 102.333 83.473 110.857 94.298 112.044 94.298 112.044 81.097"/>
    <polygon points="115.779 81.097 115.779 94.298 125.415 94.298 125.415 92.94 117.269 92.94 117.269 88.32 124.472 88.32 124.472 86.962 117.269 86.962 117.269 82.455 125.32 82.455 125.32 81.097"/>
  </g>
</svg>
