<svg xmlns="http://www.w3.org/2000/svg" width="191" height="41" viewBox="0 0 191 41">
  <g fill="#F9F9F9" fill-rule="evenodd">
    <path d="M17.9920167,0.0900670193 L0.335588692,10.285037 C0.128011085,10.4048327 0,10.6259264 0,10.8658115 L0,31.2548706 C0,31.4947557 0.128011085,31.7161429 0.335588692,31.8362323 L15.4723122,40.5754491 C15.9197638,40.8341257 16.4790783,40.5114406 16.4790783,39.9946746 L16.4790783,20.4007304 C16.4790783,20.1611389 16.3510672,19.9394581 16.1434896,19.8196623 L8.46664139,15.3872199 C8.0191898,15.1288369 7.45987531,15.451522 7.45987531,15.9679943 L7.45987531,18.7232964 C7.45987531,18.9631815 7.5878864,19.1845687 7.79546401,19.3043645 L12.7509023,22.1656623 L12.7509023,34.699879 L3.72788243,29.4899387 L3.72788243,12.6304497 L18.327899,4.20099884 L32.9276219,12.6304497 L32.9276219,29.4899387 L23.9040148,34.699879 L23.9040148,22.1656623 L28.8615083,19.3037772 C29.0690859,19.1836879 29.197097,18.962007 29.197097,18.7224155 L29.197097,15.9671135 C29.197097,15.4506411 28.6374889,15.127956 28.1903309,15.386339 L20.5117211,19.8196623 C20.3041435,19.9394581 20.176426,20.1611389 20.176426,20.4007304 L20.176426,39.9946746 C20.176426,40.5114406 20.7357405,40.8341257 21.1826049,40.5754491 L36.3193284,31.8362323 C36.5271996,31.7161429 36.6552107,31.4947557 36.6552107,31.2548706 L36.6552107,10.8658115 C36.6552107,10.6259264 36.5271996,10.4048327 36.3193284,10.285037 L18.6629004,0.0900670193 C18.4553228,-0.0300223398 18.1998879,-0.0300223398 17.9920167,0.0900670193"/>
    <g transform="translate(53 5)">
      <polygon points="0 1.098 0 14.987 3.055 14.987 3.055 9.61 9.683 9.61 9.683 6.831 3.055 6.831 3.055 3.875 10.575 3.875 10.575 1.098"/>
      <path d="M19.7619461 15.2245526C15.4765108 15.2245526 12.4010151 12.0299995 12.4010151 8.0817315L12.4010151 8.04179959C12.4010151 4.09353159 15.5164408.859633789 19.8018761.859633789 24.0870178.859633789 27.1625135 4.05359968 27.1625135 8.00245491L27.1625135 8.04179959C27.1625135 11.9906548 24.047675 15.2245526 19.7619461 15.2245526L19.7619461 15.2245526zM23.9681084 8.04179959C23.9681084 5.66085921 22.222049 3.67659543 19.7619461 3.67659543 17.3018431 3.67659543 15.5954201 5.62122092 15.5954201 8.00245491L15.5954201 8.04179959C15.5954201 10.4230336 17.341186 12.4070037 19.8018761 12.4070037 22.2619791 12.4070037 23.9681084 10.4626719 23.9681084 8.0817315L23.9681084 8.04179959zM35.6754561 15.2049096C31.9452249 15.2049096 29.6636328 13.1216969 29.6636328 9.03396084L29.6636328 1.09749293 32.7194571 1.09749293 32.7194571 8.95439063C32.7194571 11.2167097 33.8501238 12.3873608 35.7150926 12.3873608 37.5800614 12.3873608 38.7110217 11.2566416 38.7110217 9.05363318L38.7110217 1.09749293 41.7662588 1.09749293 41.7662588 8.93501191C41.7662588 13.1413693 39.4053938 15.2049096 35.6754561 15.2049096"/>
      <polygon points="54.624 14.987 47.898 6.157 47.898 14.987 44.883 14.987 44.883 1.097 47.7 1.097 54.207 9.649 54.207 1.097 57.223 1.097 57.223 14.987"/>
      <path d="M65.9742118 14.986576L60.5575226 14.986576 60.5575226 1.09731676 65.9742118 1.09731676C70.3392137 1.09731676 73.3548142 4.09338478 73.3548142 8.0023081L73.3548142 8.04224001C73.3548142 11.9508697 70.3392137 14.986576 65.9742118 14.986576L65.9742118 14.986576zM70.1607028 8.04224001C70.1607028 5.58143581 68.4742448 3.855555 65.9742118 3.855555L63.6130533 3.855555 63.6130533 12.2283378 65.9742118 12.2283378C68.4742448 12.2283378 70.1607028 10.5418017 70.1607028 8.08158469L70.1607028 8.04224001zM85.4180093 14.986576L84.1481745 11.8718867 78.2752256 11.8718867 77.0056845 14.986576 73.890846 14.986576 79.8430678.998074211 82.6604861.998074211 88.6124143 14.986576 85.4180093 14.986576zM81.2118469 4.66887413L79.3665495 9.17325275 83.0571443 9.17325275 81.2118469 4.66887413z"/>
      <polygon points="95.258 3.915 95.258 14.987 92.202 14.987 92.202 3.915 87.977 3.915 87.977 1.098 99.484 1.098 99.484 3.915"/>
      <polygon points="101.965 14.987 105.02 14.987 105.02 1.098 101.965 1.098"/>
      <path d="M115.239102,15.2245526 C110.953666,15.2245526 107.878464,12.0299995 107.878464,8.0817315 L107.878464,8.04179959 C107.878464,4.09353159 110.993596,0.859633789 115.279032,0.859633789 C119.564173,0.859633789 122.639669,4.05359968 122.639669,8.00245491 L122.639669,8.04179959 C122.639669,11.9906548 119.525124,15.2245526 115.239102,15.2245526 L115.239102,15.2245526 Z M119.445264,8.04179959 C119.445264,5.66085921 117.699205,3.67659543 115.239102,3.67659543 C112.778999,3.67659543 111.072869,5.62122092 111.072869,8.00245491 L111.072869,8.04179959 C111.072869,10.4230336 112.818342,12.4070037 115.279032,12.4070037 C117.739135,12.4070037 119.445264,10.4626719 119.445264,8.0817315 L119.445264,8.04179959 Z"/>
      <polygon points="134.684 1.098 134.684 9.649 128.176 1.098 125.359 1.098 125.359 14.987 128.375 14.987 128.375 6.157 135.1 14.987 137.7 14.987 137.7 1.098"/>
      <polygon points="9.878 21.832 5.678 28.124 1.478 21.832 .16 21.832 .16 33.362 1.429 33.362 1.429 24.039 5.628 30.199 5.694 30.199 9.894 24.023 9.894 33.362 11.195 33.362 11.195 21.832"/>
      <polygon points="14.457 21.832 14.457 33.362 22.873 33.362 22.873 32.176 15.758 32.176 15.758 28.14 22.049 28.14 22.049 26.954 15.758 26.954 15.758 23.018 22.79 23.018 22.79 21.832"/>
      <path d="M29.4941234,33.3615692 L25.4917218,33.3615692 L25.4917218,21.8318163 L29.4941234,21.8318163 C33.1171894,21.8318163 35.6210393,24.319046 35.6210393,27.5802502 C35.6210393,30.8414544 33.1171894,33.3615692 29.4941234,33.3615692 M29.4941234,23.034178 L26.7926785,23.034178 L26.7926785,32.1592076 L29.4941234,32.1592076 C32.409018,32.1592076 34.27017,30.1828714 34.27017,27.6134289 C34.27017,25.0436928 32.409018,23.034178 29.4941234,23.034178"/>
      <polygon points="38.487 33.362 39.788 33.362 39.788 21.832 38.487 21.832"/>
      <path d="M48.434714,33.5592909 C45.1078938,33.5592909 42.6536629,30.9402272 42.6536629,27.6135464 C42.6536629,24.3191635 45.0911584,21.6343295 48.4840393,21.6343295 C50.5759636,21.6343295 51.8275949,22.3754188 52.9802819,23.4626826 L52.0909572,24.4178188 C51.1194235,23.4955678 50.0319165,22.8366912 48.4675975,22.8366912 C45.9144223,22.8366912 44.0045322,24.8955337 44.0045322,27.5803677 C44.0045322,30.264908 45.9314513,32.3569293 48.4675975,32.3569293 C50.0489455,32.3569293 51.0862463,31.7473803 52.1896079,30.6932953 L53.046049,31.5336272 C51.8437431,32.7521378 50.5266382,33.5592909 48.434714,33.5592909"/>
      <polygon points="55.434 33.362 56.735 33.362 56.735 21.832 55.434 21.832"/>
      <polygon points="68.594 21.832 68.594 31.072 61.33 21.832 60.111 21.832 60.111 33.362 61.379 33.362 61.379 23.907 68.825 33.362 69.862 33.362 69.862 21.832"/>
      <polygon points="73.123 21.832 73.123 33.362 81.539 33.362 81.539 32.176 74.425 32.176 74.425 28.14 80.716 28.14 80.716 26.954 74.425 26.954 74.425 23.018 81.457 23.018 81.457 21.832"/>
    </g>
  </g>
</svg>
