<svg xmlns="http://www.w3.org/2000/svg" width="37" height="41" viewBox="0 0 37 41">
  <path fill="#ffffff" fill-rule="evenodd" d="M17.9920167,0.0900670193 L0.335588692,10.285037 C0.128011085,10.4048327 0,10.6259264 0,10.8658115 L0,31.2548706 C0,31.4947557 0.128011085,31.7161429 0.335588692,31.8362323 L15.4723122,40.5754491 C15.9197638,40.8341257 16.4790783,40.5114406 16.4790783,39.9946746 L16.4790783,20.4007304 C16.4790783,20.1611389 16.3510672,19.9394581 16.1434896,19.8196623 L8.46664139,15.3872199 C8.0191898,15.1288369 7.45987531,15.451522 7.45987531,15.9679943 L7.45987531,18.7232964 C7.45987531,18.9631815 7.5878864,19.1845687 7.79546401,19.3043645 L12.7509023,22.1656623 L12.7509023,34.699879 L3.72788243,29.4899387 L3.72788243,12.6304497 L18.327899,4.20099884 L32.9276219,12.6304497 L32.9276219,29.4899387 L23.9040148,34.699879 L23.9040148,22.1656623 L28.8615083,19.3037772 C29.0690859,19.1836879 29.197097,18.962007 29.197097,18.7224155 L29.197097,15.9671135 C29.197097,15.4506411 28.6374889,15.127956 28.1903309,15.386339 L20.5117211,19.8196623 C20.3041435,19.9394581 20.176426,20.1611389 20.176426,20.4007304 L20.176426,39.9946746 C20.176426,40.5114406 20.7357405,40.8341257 21.1826049,40.5754491 L36.3193284,31.8362323 C36.5271996,31.7161429 36.6552107,31.4947557 36.6552107,31.2548706 L36.6552107,10.8658115 C36.6552107,10.6259264 36.5271996,10.4048327 36.3193284,10.285037 L18.6629004,0.0900670193 C18.4553228,-0.0300223398 18.1998879,-0.0300223398 17.9920167,0.0900670193"/>
</svg>
