<svg xmlns="http://www.w3.org/2000/svg" width="25" height="25" viewBox="0 0 25 25">
  <path fill="#F9F9F9" d="M22.998668,6.0618286 C22.1892227,6.4114805 21.3193633,6.64786076 20.4063633,6.75418374 C21.3381836,6.21001102 22.0539141,5.34829258 22.390918,4.3214805 C21.5049451,4.83374863 20.5355581,5.1946174 19.5246875,5.38847764 C18.7014063,4.53391716 17.5283594,4 16.2302734,4 C13.7376563,4 11.7168359,5.96864948 11.7168359,8.39691562 C11.7168359,8.74150253 11.7567969,9.07713153 11.8337109,9.3989469 C8.08253906,9.21551884 4.75675781,7.46504076 2.53054688,4.80474774 C2.14210938,5.45398766 1.91953125,6.20913197 1.91953125,7.0149262 C1.91953125,8.5402842 2.71660156,9.88606521 3.92746094,10.6746971 C3.18753906,10.6516744 2.491875,10.4540978 1.8834375,10.124664 C1.88300781,10.1430822 1.88300781,10.1615003 1.88300781,10.1799185 C1.88300781,12.3101454 3.43890625,14.0874972 5.50355469,14.4914408 C5.125,14.5919035 4.72625,14.6459022 4.31460938,14.6459022 C4.02371094,14.6459022 3.74097656,14.618275 3.46554688,14.5667878 C4.04003906,16.3135823 5.70679688,17.5848535 7.68207031,17.620434 C6.13734375,18.7996145 4.19128906,19.5028531 2.07636719,19.5028531 C1.71199219,19.5028531 1.35277344,19.4819233 1,19.4413197 C2.99761719,20.688731 5.36992188,21.4166667 7.91882813,21.4166667 C16.2208203,21.4166667 20.7608984,14.7166446 20.7608984,8.90613571 C20.7608984,8.71525666 20.7566016,8.5256334 20.7475781,8.33726592 C21.6297266,7.71732761 22.395,6.94292796 23,6.06094955 L22.998668,6.0618286 Z"/>
</svg>
