<svg xmlns="http://www.w3.org/2000/svg" width="25" height="25" viewBox="0 0 25 25">
  <path fill="#F9F9F9" d="M18.484,18.4871875 L15.965875,18.4871875 L15.965875,14.542125 C15.965875,13.60075 15.94675,12.3905625 14.65475,12.3905625 C13.3425625,12.3905625 13.14175,13.4148125 13.14175,14.4730625 L13.14175,18.4871875 L10.623625,18.4871875 L10.623625,10.375 L13.041875,10.375 L13.041875,11.48 L13.07375,11.48 C13.411625,10.8425 14.234,10.1699375 15.4611875,10.1699375 C18.0111875,10.1699375 18.484,11.8486875 18.484,14.03425 L18.484,18.484 L18.484,18.4871875 Z M7.780375,9.2646875 C6.97075,9.2646875 6.318375,8.609125 6.318375,7.801625 C6.318375,6.99625 6.97075,6.3406875 7.780375,6.3406875 C8.587875,6.3406875 9.242375,6.99625 9.242375,7.801625 C9.242375,8.609125 8.5868125,9.2646875 7.780375,9.2646875 L7.780375,9.2646875 Z M9.042625,18.4871875 L6.518125,18.4871875 L6.518125,10.375 L9.042625,10.375 L9.042625,18.4871875 L9.042625,18.4871875 Z M19.742,4 L5.25375,4 C4.561,4 4,4.54825 4,5.2250625 L4,19.7749375 C4,20.45175 4.561,21 5.25375,21 L19.7409375,21 C20.4336875,21 21,20.45175 21,19.7749375 L21,5.2250625 C21,4.54825 20.4336875,4 19.7409375,4 L19.742,4 Z"/>
</svg>
