<svg xmlns="http://www.w3.org/2000/svg" width="35" height="25" viewBox="0 0 35 25" xmlns:xlink="http://www.w3.org/1999/xlink">
  <defs>
    <rect id="a" width="35" height="25"/>
    <mask id="b" width="35" height="25" x="0" y="0" fill="white">
      <use xlink:href="#a"/>
    </mask>
  </defs>
  <g fill="none" fill-rule="evenodd">
    <path fill="#FC3407" d="M8,16 L8,9 L10.86,9 C12.53,9 13.54,9.99 13.54,11.42 L13.54,11.44 C13.54,13.06 12.28,13.9 10.71,13.9 L9.54,13.9 L9.54,16 L8,16 Z M9.54,12.53 L10.76,12.53 C11.53,12.53 11.98,12.07 11.98,11.47 L11.98,11.45 C11.98,10.76 11.5,10.39 10.73,10.39 L9.54,10.39 L9.54,12.53 Z M14.68,16 L14.68,9 L17.41,9 C19.61,9 21.13,10.51 21.13,12.48 L21.13,12.5 C21.13,14.47 19.61,16 17.41,16 L14.68,16 Z M17.41,10.39 L16.22,10.39 L16.22,14.61 L17.41,14.61 C18.67,14.61 19.52,13.76 19.52,12.52 L19.52,12.5 C19.52,11.26 18.67,10.39 17.41,10.39 Z M22.5,16 L24.04,16 L24.04,13.29 L27.38,13.29 L27.38,11.89 L24.04,11.89 L24.04,10.4 L27.83,10.4 L27.83,9 L22.5,9 L22.5,16 Z"/>
    <use stroke="#D6D6D6" stroke-width="2" mask="url(#b)" xlink:href="#a"/>
  </g>
</svg>
