<svg xmlns="http://www.w3.org/2000/svg" width="88" height="88" viewBox="0 0 88 88">

	<style>
	@keyframes rotator {
		0% {transform: rotate(0deg);}
		100% {transform: rotate(365deg);}
	}

	#spinner-dials {
		transform-origin: 50% 50%;
		-webkit-animation: rotator 3s infinite;
		animation: rotator 12s infinite;
	}

	</style>

  <g fill="#F9F9F9" fill-rule="evenodd">
    <path id="spinner-dials" fill-opacity="0.5" fill-rule="nonzero" d="M43.9992557,88 C44.2985891,88 44.5976084,87.997004 44.896283,87.9910188 L44.7039366,78.3928639 C44.4693675,78.3975645 44.234467,78.3999181 43.9992557,78.3999181 L43.9992557,88 Z M50.2645687,87.5567252 C50.5617862,87.5143131 50.8583751,87.4688843 51.1543006,87.4204503 L49.6036534,77.9464265 C49.3724267,77.9842712 49.1406563,78.0197717 48.9083669,78.0529188 L50.2645687,87.5567252 Z M56.4111168,86.2238217 C56.6991524,86.1392773 56.9862185,86.0517933 57.2722773,85.961387 L54.3792268,76.8075875 C54.1560252,76.8781284 53.9320376,76.9463891 53.7072921,77.0123565 L56.4111168,86.2238217 Z M62.3204564,84.0147862 L58.3191592,75.2882978 C58.5318511,75.1907761 58.7435235,75.0910802 58.9541461,74.9892279 L63.1336068,83.6318042 C62.863902,83.7622274 62.5928388,83.8898958 62.3204564,84.0147862 Z M67.8180823,81.0013522 L62.6150484,72.9334715 C62.8117512,72.8066197 63.0071633,72.6777614 63.2012541,72.5469189 L68.5675972,80.5071116 C68.3194483,80.6743962 68.0695972,80.8391527 67.8180823,81.0013522 Z M72.8537306,77.218982 L66.5555583,69.9735968 C66.7321543,69.8200917 66.9071944,69.6647961 67.0806497,69.5077365 L73.5243939,76.6239708 C73.3028555,76.8245685 73.0792889,77.0229167 72.8537306,77.218982 Z M77.305449,72.7540231 L70.0412119,66.477577 C70.1944508,66.3002258 70.3458815,66.1213267 70.495478,65.9409093 L77.8857112,72.0685039 C77.6946173,72.2989684 77.5011856,72.5274872 77.305449,72.7540231 Z M81.0865123,67.6857374 L72.9999876,62.5116331 C73.12604,62.3146327 73.250079,62.1163586 73.3720829,61.9168413 L81.5623892,66.9250509 C81.4063482,67.1802301 81.2477134,67.4338052 81.0865123,67.6857374 Z M84.0548921,62.2331777 L75.3195326,58.2510917 C75.4164968,58.0383902 75.5112851,57.8246833 75.6038807,57.6100007 L84.4191006,61.4120329 C84.3004936,61.6870228 84.1790834,61.9607506 84.0548921,62.2331777 Z M86.2489768,56.3258805 C86.3327656,56.0382592 86.4136218,55.7496883 86.4915291,55.4602051 L77.2211681,52.9653774 C77.1603758,53.1912656 77.0972837,53.4164373 77.0319043,53.640865 L86.2489768,56.3258805 Z M87.5720552,50.1577884 C87.6135767,49.8616134 87.6521024,49.5648312 87.6876217,49.2674756 L78.1551814,48.12885 C78.1274052,48.3613829 78.0972823,48.5934345 78.0648213,48.824981 L87.5720552,50.1577884 Z M88,43.8687085 C87.9991283,43.5701002 87.9952741,43.2718106 87.9884442,42.9738699 L78.3907615,43.1938791 C78.3961247,43.4278369 78.399152,43.6621285 78.3998368,43.8967333 L88,43.8687085 Z M87.5383978,37.6060137 C87.4952155,37.3096619 87.4490322,37.0139424 87.3998594,36.7188896 L77.9302593,38.2970305 C77.9686789,38.5275611 78.0047667,38.7586372 78.0385134,38.9902344 L87.5383978,37.6060137 Z M86.1880037,31.4659784 C86.1028392,31.1789313 86.0147525,30.8928557 85.9237607,30.6077893 L76.7781489,33.5269476 C76.8491466,33.7493749 76.9178775,33.9725893 76.9843285,34.1965629 L86.1880037,31.4659784 Z M83.960768,25.561001 L75.2460384,29.588034 C75.1478286,29.3755077 75.0474449,29.1640076 74.9449052,28.9535641 L83.5751552,24.7485368 C83.7064545,25.0180041 83.8349999,25.2888385 83.960768,25.561001 Z M80.9317253,20.0733236 L72.8789399,25.2997822 C72.7515293,25.1034765 72.6221168,24.9084667 72.4907245,24.7147834 L80.4353736,19.3253743 C80.6033561,19.5729949 80.7688163,19.8223242 80.9317253,20.0733236 Z M77.1350437,15.0491739 L69.9077995,21.3681805 C69.7535502,21.1917653 69.5975097,21.0169157 69.4397047,20.8436611 L76.5371848,14.3792484 C76.7387325,14.6005284 76.93803,14.8238491 77.1350437,15.0491739 Z M72.6540478,10.6077369 L66.3992261,17.8905781 C66.2214417,17.7378929 66.0421151,17.5870202 65.8612762,17.4379859 L71.9668801,10.029604 C72.1978868,10.2199829 72.426955,10.4127048 72.6540478,10.6077369 Z M67.5774082,6.84379154 L62.4268404,14.9452667 C62.2291879,14.819611 62.0302636,14.6959784 61.8300981,14.5743905 L66.8142029,6.36945877 C67.0702194,6.52497262 67.3246341,6.68309277 67.5774082,6.84379154 Z M62.1150571,3.89092448 L58.1587835,12.6379166 C57.9456717,12.5415283 57.7315587,12.4473213 57.5164745,12.3553122 L61.2923302,3.52893983 C61.5678417,3.64679858 61.842097,3.76746747 62.1150571,3.89092448 Z M56.1994002,1.71386377 C55.9116712,1.63098406 55.6230009,1.55103625 55.3334263,1.47403644 L52.8663664,10.7517163 C53.0923288,10.8118012 53.3175805,10.8741851 53.5420941,10.9388558 L56.1994002,1.71386377 Z M50.0289083,0.409545978 C49.7326221,0.368901359 49.4357353,0.331252859 49.1382819,0.296611039 L48.0277214,9.83224211 C48.26035,9.85933434 48.4925018,9.88877374 48.7241531,9.92055172 L50.0289083,0.409545978 Z M43.7397181,0 C43.4403462,0.00173303211 43.1413007,0.00646453854 42.8426121,0.0141876913 L43.0907635,9.61106195 C43.3252739,9.60499825 43.5601238,9.60128244 43.7952924,9.59992108 L43.7397181,0 Z M37.4773003,0.479918714 C37.1805152,0.524057504 36.8843716,0.571207824 36.5889042,0.621357885 L38.1954032,10.0860713 C38.4262436,10.0468904 38.6576364,10.0100494 38.8895567,9.97555749 L37.4773003,0.479918714 Z M31.3395952,1.84895828 C31.0524565,1.93508775 30.766299,2.02414402 30.4811604,2.11610968 L33.4280619,11.2527155 C33.6505458,11.1809578 33.8738241,11.1114705 34.0978686,11.0442666 L31.3395952,1.84895828 Z M25.4391424,4.09487676 L29.4927994,12.797167 C29.2804672,12.896072 29.069168,12.9971499 28.8589321,13.1003826 L24.6274749,4.48314415 C24.8966679,4.35096151 25.1672367,4.22153125 25.4391424,4.09487676 Z M19.9650897,7.13765727 L25.2150559,15.1750779 C25.0191469,15.3030405 24.824539,15.4330006 24.6312627,15.5649357 L19.218704,7.63609421 C19.465797,7.46742253 19.7146051,7.30126727 19.9650897,7.13765727 Z M14.9492443,10.9512467 L21.2898633,18.159516 C21.1141051,18.3141145 20.9399145,18.4704952 20.7673205,18.6286315 L14.2818502,11.550403 C14.5022843,11.348434 14.7247611,11.1487041 14.9492443,10.9512467 Z M10.5237963,15.4422933 L17.8247825,21.6759544 C17.6726165,21.8541697 17.5222676,22.0339216 17.3737615,22.2151803 L9.94766142,16.1311016 C10.1373686,15.8995548 10.3294245,15.6699397 10.5237963,15.4422933 Z M6.77199497,20.5337512 L14.889044,25.659838 C14.7640377,25.8577776 14.6410569,26.0569822 14.5201229,26.2574212 L6.30014709,21.2980572 C6.4548298,21.0416825 6.61212161,20.7869008 6.77199497,20.5337512 Z M3.83680803,26.0022225 L12.5955827,29.9325395 C12.4998972,30.1457706 12.4063926,30.3599958 12.3150853,30.5751853 L3.47751286,26.8254022 C3.59447559,26.5497489 3.71424792,26.2753427 3.83680803,26.0022225 Z M1.67674652,31.9260571 C1.59472451,32.2140572 1.51563728,32.5029916 1.43950078,32.7928232 L10.7246846,35.2319065 C10.7840967,35.0057405 10.8458098,34.7802801 10.9098118,34.5555527 L1.67674652,31.9260571 Z M0.391160356,38.0987506 C0.351380265,38.3952255 0.314598463,38.6922945 0.280825413,38.9899238 L9.81981429,40.0723191 C9.84622932,39.8395334 9.87499334,39.6072201 9.90609783,39.3754032 L0.391160356,38.0987506 Z M0,44.3876987 C0.00258599575,44.6863526 0.00815710303,44.9846757 0.0167064533,45.2826376 L9.61296127,45.0073016 C9.60624984,44.773395 9.60187531,44.5391467 9.59984421,44.3045773 L0,44.3876987 Z M0.498248095,50.6496421 C0.543151012,50.9455569 0.591049755,51.2408266 0.641932513,51.5354166 L10.1020625,49.9014671 C10.0623115,49.6713256 10.024888,49.4406298 9.98980124,49.2094045 L0.498248095,50.6496421 Z M1.88596359,56.7848197 C1.97305983,57.0720351 2.06308738,57.3582595 2.15602864,57.6434553 L11.2837812,54.6689255 C11.2112621,54.4463965 11.1410169,54.2230659 11.0730587,53.9989619 L1.88596359,56.7848197 Z M4.14883866,62.6767743 L12.8392232,58.5974715 C12.9384781,58.8089147 13.0398906,59.0193252 13.1434431,59.2286728 L4.5383804,63.4850038 C4.40579241,63.2169563 4.2759374,62.9475335 4.14883866,62.6767743 Z M7.20943076,68.1442844 L15.231131,62.8702408 C15.3596511,63.065712 15.4901636,63.2598772 15.622646,63.4527057 L7.70997123,68.8889494 C7.54060501,68.6424362 7.37374855,68.3942017 7.20943076,68.1442844 Z M11.0350072,73.1451062 L18.2250155,66.7837645 C18.3803482,66.9593272 18.5374635,67.1333126 18.6963345,67.3056914 L11.6369721,73.8117074 C11.4340664,73.5915499 11.2334002,73.3693374 11.0350072,73.1451062 Z M15.5420477,77.5601954 L21.75397,70.2407298 C21.9326031,70.3923292 22.1127667,70.5421076 22.294431,70.690039 L16.2324451,78.1341532 C16.0003762,77.9451766 15.7702313,77.7538466 15.5420477,77.5601954 Z M20.6417841,81.2948364 L25.7442328,73.1629699 C25.942474,73.2873559 26.1419739,73.409714 26.3427018,73.5300229 L21.4072477,81.76431 C21.150495,81.610422 20.8953275,81.4539216 20.6417841,81.2948364 Z M26.1199811,84.2144608 L30.0243982,75.4441992 C30.2379943,75.5392872 30.4525798,75.6321901 30.6681247,75.7228911 L26.9445663,84.5714525 C26.6684507,84.4552634 26.393576,84.3362589 26.1199811,84.2144608 Z M32.048027,86.3562871 C32.3363288,86.4374856 32.6255582,86.5157459 32.9156781,86.5910522 L35.3276965,77.298911 C35.1013022,77.2401459 34.8756088,77.1790773 34.6506436,77.1157172 L32.048027,86.3562871 Z M38.2271238,87.6242553 C38.5236251,87.6631469 38.8207135,87.6990416 39.1183552,87.7319289 L40.1727084,78.1899197 C39.9398929,78.1641952 39.7075453,78.1361226 39.475689,78.1057103 L38.2271238,87.6242553 Z"/>
    <path fill="#fff" fill-opacity="1" d="M44.0987234,29.5267815 L32.0564873,36.4800698 C31.9149129,36.5617743 31.8276054,36.712567 31.8276054,36.8761762 L31.8276054,50.7821521 C31.8276054,50.9457613 31.9149129,51.0967543 32.0564873,51.178659 L42.3802062,57.1390781 C42.6853821,57.3155037 43.0668521,57.0954223 43.0668521,56.7429718 L43.0668521,43.3792891 C43.0668521,43.2158802 42.9795445,43.0646869 42.8379701,42.9829825 L37.6021196,39.9599181 C37.2969436,39.7836928 36.9154736,40.0037742 36.9154736,40.3560245 L36.9154736,42.2352266 C36.9154736,42.3988358 37.0027812,42.5498288 37.1443556,42.6315332 L40.5241195,44.5830278 L40.5241195,53.1317556 L34.3701378,49.5784134 L34.3701378,38.0797147 L44.3278056,32.3305655 L54.2852732,38.0797147 L54.2852732,49.5784134 L48.130891,53.1317556 L48.130891,44.5830278 L51.5120566,42.6311327 C51.653631,42.549228 51.7409386,42.3980347 51.7409386,42.2346259 L51.7409386,40.3554237 C51.7409386,40.0031734 51.3592684,39.7830921 51.0542926,39.9593173 L45.8172406,42.9829825 C45.6756662,43.0646869 45.5885588,43.2158802 45.5885588,43.3792891 L45.5885588,56.7429718 C45.5885588,57.0954223 45.9700288,57.3155037 46.2748043,57.1390781 L56.5985231,51.178659 C56.7402978,51.0967543 56.8276054,50.9457613 56.8276054,50.7821521 L56.8276054,36.8761762 C56.8276054,36.712567 56.7402978,36.5617743 56.5985231,36.4800698 L44.5562871,29.5267815 C44.4147127,29.4448768 44.240498,29.4448768 44.0987234,29.5267815"/>
  </g>
</svg>
