<?xml version="1.0" encoding="UTF-8"?>
<svg width="901px" height="399px" viewBox="0 0 901 399" version="1.1" xmlns="http://www.w3.org/2000/svg" xmlns:xlink="http://www.w3.org/1999/xlink">
    <!-- Generator: Sketch 43.2 (39069) - http://www.bohemiancoding.com/sketch -->
    <title>triangle-overlay</title>
    <desc>Created with Sketch.</desc>
    <defs></defs>
    <g id="Symbols" stroke="none" stroke-width="1" fill="none" fill-rule="evenodd">
        <g id="triangle-overlay" stroke="#F38364">
            <g id="shape-overlay" transform="translate(2.000000, 0.000000)">
                <polygon id="Stroke-133" points="858.52748 297.101247 858.52748 297.131836 858.4938 297.131836 801.330742 198.178894"></polygon>
                <polygon id="Stroke-149" points="801.320025 198.19113 744.126349 297.144071 686.935735 198.160541 801.289408 198.160541"></polygon>
                <polygon id="Stroke-150" points="801.331966 396.054188 801.331966 396.084777 686.947676 396.084777 744.13829 297.131836"></polygon>
                <polygon id="Stroke-153" points="686.93451 198.161153 744.128186 297.144683 629.737772 297.144683"></polygon>
                <polygon id="Stroke-157" points="686.638438 198.147694 572.254147 198.147694 629.444761 99.1947532"></polygon>
                <polygon id="Stroke-158" points="629.433739 297.144377 686.627415 396.097318 572.240063 396.097318"></polygon>
                <polygon id="Stroke-163" points="629.433739 99.2079061 572.240063 198.160847 515.046387 99.2079061"></polygon>
                <polygon id="Stroke-164" points="629.44568 297.132447 572.252004 396.085388 515.088945 297.163036 515.088945 297.132447"></polygon>
                <polygon id="Stroke-169" points="572.252922 198.147694 457.86557 198.147694 515.056184 99.1947532"></polygon>
                <polygon id="Stroke-183" points="515.078229 297.175883 457.881491 396.067647 515.04455 297.145294"></polygon>
                <polyline id="Stroke-187" points="515.057409 297.132447 400.700674 297.132447 457.89435 198.179506"></polyline>
                <polygon id="Stroke-188" points="515.057409 297.132447 457.89435 396.0548 400.700674 297.132447"></polygon>
                <polygon id="Stroke-200" points="457.894656 198.1792 400.70098 297.132141 343.510366 198.148612 457.864039 198.148612"></polygon>
                <polygon id="Stroke-204" points="400.701899 297.132447 286.314546 297.132447 343.508222 198.148918"></polygon>
                <polygon id="Stroke-224" points="858.52748 99.1647767 858.52748 99.1953649 858.4938 99.1953649 801.330742 0.242423762"></polygon>
                <polygon id="Stroke-225" points="858.494719 99.1959767 744.137984 99.1959767 801.33166 0.243035527"></polygon>
                <polygon id="Stroke-227" points="801.320025 0.254659056 744.126349 99.2076002 686.935735 0.224070821 801.289408 0.224070821"></polygon>
                <polygon id="Stroke-228" points="686.93451 0.224988468 744.128186 99.2085179 629.737772 99.2085179"></polygon>
                <polygon id="Stroke-235" points="457.894656 0.242729644 400.70098 99.1956708 343.510366 0.212141409 457.864039 0.212141409"></polygon>
                <polygon id="Stroke-236" points="400.701899 99.1959767 286.314546 99.1959767 343.508222 0.212447291"></polygon>
                <polygon id="Stroke-240" points="343.177246 198.147694 228.789894 198.147694 285.98357 99.1947532"></polygon>
                <polygon id="Stroke-246" points="285.984488 297.132447 228.78775 396.085388 171.624692 297.163036 171.624692 297.132447"></polygon>
                <polygon id="Stroke-251" points="228.788669 198.147694 114.404378 198.147694 171.594993 99.1947532"></polygon>
                <polygon id="Stroke-293" points="114.433159 0.242729644 57.2394824 99.1956708 0.0458061429 0.212141409 114.402541 0.212141409"></polygon>
                <polygon id="Stroke-310" points="915.690538 198.147694 858.4938 297.131224 801.321556 198.190518"></polygon>
                <polyline id="Stroke-325" points="343.177246 198.147694 400.701593 99.1947532 457.864651 198.147694 515.058327 297.131224 572.252004 198.147694"></polyline>
                <polyline id="Stroke-326" points="686.638438 198.147694 744.126043 99.2069885 801.319719 198.190518 858.495025 99.1947532 915.691763 0.211223762 801.319719 0.254047291"></polyline>
            </g>
        </g>
    </g>
</svg>